<svg width="133" height="37" viewBox="0 0 133 37" fill="none" xmlns="http://www.w3.org/2000/svg">
<rect width="16" height="16" rx="3" fill="#171D21"/>
<rect x="21" width="16" height="16" rx="3" fill="#5E6160"/>
<rect y="21" width="16" height="16" rx="3" fill="#171D21"/>
<path d="M23.8592 35.1297C22.2336 33.7662 21.2161 31.8129 21.0306 29.6993C20.8452 27.5856 21.5069 25.4849 22.8703 23.8592C24.2338 22.2336 26.1871 21.2161 28.3007 21.0306C30.4144 20.8452 32.5151 21.5069 34.1408 22.8703L29 29L23.8592 35.1297Z" fill="#2C2C2C"/>
<path d="M64.808 7.77197H67.928V24.572H64.808V7.77197ZM56.12 24.572H53V7.77197H56.12V24.572ZM65.048 17.372H55.856V14.708H65.048V17.372Z" fill="#171D21"/>
<path d="M77.9017 24.74C76.5897 24.74 75.4217 24.46 74.3977 23.9C73.3737 23.324 72.5657 22.54 71.9737 21.548C71.3817 20.556 71.0857 19.428 71.0857 18.164C71.0857 16.884 71.3817 15.756 71.9737 14.78C72.5657 13.788 73.3737 13.012 74.3977 12.452C75.4217 11.892 76.5897 11.612 77.9017 11.612C79.2297 11.612 80.4057 11.892 81.4297 12.452C82.4697 13.012 83.2777 13.78 83.8537 14.756C84.4457 15.732 84.7417 16.868 84.7417 18.164C84.7417 19.428 84.4457 20.556 83.8537 21.548C83.2777 22.54 82.4697 23.324 81.4297 23.9C80.4057 24.46 79.2297 24.74 77.9017 24.74ZM77.9017 22.172C78.6377 22.172 79.2937 22.012 79.8697 21.692C80.4457 21.372 80.8937 20.908 81.2137 20.3C81.5497 19.692 81.7177 18.98 81.7177 18.164C81.7177 17.332 81.5497 16.62 81.2137 16.028C80.8937 15.42 80.4457 14.956 79.8697 14.636C79.2937 14.316 78.6457 14.156 77.9257 14.156C77.1897 14.156 76.5337 14.316 75.9577 14.636C75.3977 14.956 74.9497 15.42 74.6137 16.028C74.2777 16.62 74.1097 17.332 74.1097 18.164C74.1097 18.98 74.2777 19.692 74.6137 20.3C74.9497 20.908 75.3977 21.372 75.9577 21.692C76.5337 22.012 77.1817 22.172 77.9017 22.172Z" fill="#171D21"/>
<path d="M93.6344 24.74C92.2104 24.74 90.9624 24.46 89.8904 23.9C88.8344 23.324 88.0104 22.54 87.4184 21.548C86.8424 20.556 86.5544 19.428 86.5544 18.164C86.5544 16.884 86.8344 15.756 87.3944 14.78C87.9704 13.788 88.7544 13.012 89.7464 12.452C90.7544 11.892 91.8984 11.612 93.1784 11.612C94.4264 11.612 95.5384 11.884 96.5144 12.428C97.4904 12.972 98.2584 13.74 98.8184 14.732C99.3784 15.724 99.6584 16.892 99.6584 18.236C99.6584 18.364 99.6504 18.508 99.6344 18.668C99.6344 18.828 99.6264 18.98 99.6104 19.124H88.9304V17.132H98.0264L96.8504 17.756C96.8664 17.02 96.7144 16.372 96.3944 15.812C96.0744 15.252 95.6344 14.812 95.0744 14.492C94.5304 14.172 93.8984 14.012 93.1784 14.012C92.4424 14.012 91.7944 14.172 91.2344 14.492C90.6904 14.812 90.2584 15.26 89.9384 15.836C89.6344 16.396 89.4824 17.06 89.4824 17.828V18.308C89.4824 19.076 89.6584 19.756 90.0104 20.348C90.3624 20.94 90.8584 21.396 91.4984 21.716C92.1384 22.036 92.8744 22.196 93.7064 22.196C94.4264 22.196 95.0744 22.084 95.6504 21.86C96.2264 21.636 96.7384 21.284 97.1864 20.804L98.7944 22.652C98.2184 23.324 97.4904 23.844 96.6104 24.212C95.7464 24.564 94.7544 24.74 93.6344 24.74Z" fill="#171D21"/>
<path d="M109.644 24.74C108.604 24.74 107.652 24.5 106.788 24.02C105.94 23.54 105.26 22.82 104.748 21.86C104.252 20.884 104.004 19.652 104.004 18.164C104.004 16.66 104.244 15.428 104.724 14.468C105.22 13.508 105.892 12.796 106.74 12.332C107.588 11.852 108.556 11.612 109.644 11.612C110.908 11.612 112.02 11.884 112.98 12.428C113.956 12.972 114.724 13.732 115.284 14.708C115.86 15.684 116.148 16.836 116.148 18.164C116.148 19.492 115.86 20.652 115.284 21.644C114.724 22.62 113.956 23.38 112.98 23.924C112.02 24.468 110.908 24.74 109.644 24.74ZM102.54 29.228V11.756H105.396V14.78L105.3 18.188L105.54 21.596V29.228H102.54ZM109.308 22.172C110.028 22.172 110.668 22.012 111.228 21.692C111.804 21.372 112.26 20.908 112.596 20.3C112.932 19.692 113.1 18.98 113.1 18.164C113.1 17.332 112.932 16.62 112.596 16.028C112.26 15.42 111.804 14.956 111.228 14.636C110.668 14.316 110.028 14.156 109.308 14.156C108.588 14.156 107.94 14.316 107.364 14.636C106.788 14.956 106.332 15.42 105.996 16.028C105.66 16.62 105.492 17.332 105.492 18.164C105.492 18.98 105.66 19.692 105.996 20.3C106.332 20.908 106.788 21.372 107.364 21.692C107.94 22.012 108.588 22.172 109.308 22.172Z" fill="#171D21"/>
<path d="M126.097 24.74C125.057 24.74 124.105 24.5 123.241 24.02C122.393 23.54 121.713 22.82 121.201 21.86C120.705 20.884 120.457 19.652 120.457 18.164C120.457 16.66 120.697 15.428 121.177 14.468C121.673 13.508 122.345 12.796 123.193 12.332C124.041 11.852 125.009 11.612 126.097 11.612C127.361 11.612 128.473 11.884 129.433 12.428C130.409 12.972 131.177 13.732 131.737 14.708C132.313 15.684 132.601 16.836 132.601 18.164C132.601 19.492 132.313 20.652 131.737 21.644C131.177 22.62 130.409 23.38 129.433 23.924C128.473 24.468 127.361 24.74 126.097 24.74ZM118.993 29.228V11.756H121.849V14.78L121.753 18.188L121.993 21.596V29.228H118.993ZM125.761 22.172C126.481 22.172 127.121 22.012 127.681 21.692C128.257 21.372 128.713 20.908 129.049 20.3C129.385 19.692 129.553 18.98 129.553 18.164C129.553 17.332 129.385 16.62 129.049 16.028C128.713 15.42 128.257 14.956 127.681 14.636C127.121 14.316 126.481 14.156 125.761 14.156C125.041 14.156 124.393 14.316 123.817 14.636C123.241 14.956 122.785 15.42 122.449 16.028C122.113 16.62 121.945 17.332 121.945 18.164C121.945 18.98 122.113 19.692 122.449 20.3C122.785 20.908 123.241 21.372 123.817 21.692C124.393 22.012 125.041 22.172 125.761 22.172Z" fill="#171D21"/>
</svg>
